HIERARCHY
ROOT Hips
{
	OFFSET 0.00000 0.00000 0.00000
	CHANNELS 6 Xposition Yposition Zposition Zrotation Yrotation Xrotation 
	JOINT LHipJoint
	{
		OFFSET 0 0 0
		CHANNELS 3 Zrotation Yrotation Xrotation
		JOINT LeftUpLeg
		{
			OFFSET 1.58895 -1.83665 0.71753
			CHANNELS 3 Zrotation Yrotation Xrotation
			JOINT LeftLeg
			{
				OFFSET 2.50528 -6.88321 0.00000
				CHANNELS 3 Zrotation Yrotation Xrotation
				JOINT LeftFoot
				{
					OFFSET 2.63244 -7.23257 0.00000
					CHANNELS 3 Zrotation Yrotation Xrotation
					JOINT LeftToeBase
					{
						OFFSET 0.23691 -0.65090 1.72750
						CHANNELS 3 Zrotation Yrotation Xrotation
						End Site
						{
							OFFSET 0.00000 -0.00000 0.92561
						}
					}
				}
			}
		}
	}
	JOINT RHipJoint
	{
		OFFSET 0 0 0
		CHANNELS 3 Zrotation Yrotation Xrotation
		JOINT RightUpLeg
		{
			OFFSET -1.51435 -1.83665 0.71753
			CHANNELS 3 Zrotation Yrotation Xrotation
			JOINT RightLeg
			{
				OFFSET -2.54551 -6.99375 0.00000
				CHANNELS 3 Zrotation Yrotation Xrotation
				JOINT RightFoot
				{
					OFFSET -2.66027 -7.30903 0.00000
					CHANNELS 3 Zrotation Yrotation Xrotation
					JOINT RightToeBase
					{
						OFFSET -0.22981 -0.63138 2.03959
						CHANNELS 3 Zrotation Yrotation Xrotation
						End Site
						{
							OFFSET -0.00000 -0.00000 1.07060
						}
					}
				}
			}
		}
	}
	JOINT LowerBack
	{
		OFFSET 0 0 0
		CHANNELS 3 Zrotation Yrotation Xrotation
		JOINT Spine
		{
			OFFSET -0.02651 1.86275 -0.11152
			CHANNELS 3 Zrotation Yrotation Xrotation
			JOINT Spine1
			{
				OFFSET 0.01019 1.86224 0.04087
				CHANNELS 3 Zrotation Yrotation Xrotation
				JOINT Neck
				{
					OFFSET 0 0 0
					CHANNELS 3 Zrotation Yrotation Xrotation
					JOINT Neck1
					{
						OFFSET -0.01926 1.80512 0.08867
						CHANNELS 3 Zrotation Yrotation Xrotation
						JOINT Head
						{
							OFFSET 0.05516 1.76451 -0.38475
							CHANNELS 3 Zrotation Yrotation Xrotation
							End Site
							{
								OFFSET 0.01592 1.82587 -0.14001
							}
						}
					}
				}
				JOINT LeftShoulder
				{
					OFFSET 0 0 0
					CHANNELS 3 Zrotation Yrotation Xrotation
					JOINT LeftArm
					{
						OFFSET 3.47116 1.51376 0.14491
						CHANNELS 3 Zrotation Yrotation Xrotation
						JOINT LeftForeArm
						{
							OFFSET 4.78095 -0.00000 0.00000
							CHANNELS 3 Zrotation Yrotation Xrotation
							JOINT LeftHand
							{
								OFFSET 3.58615 -0.00000 -0.00000
								CHANNELS 3 Zrotation Yrotation Xrotation
								JOINT LeftFingerBase
								{
									OFFSET 0 0 0
									CHANNELS 3 Zrotation Yrotation Xrotation
									JOINT LeftHandIndex1
									{
										OFFSET 0.65981 -0.00000 0.00000
										CHANNELS 3 Zrotation Yrotation Xrotation
										End Site
										{
											OFFSET 0.53196 -0.00000 0.00000
										}
									}
								}
								JOINT LThumb
								{
									OFFSET 0 0 0
									CHANNELS 3 Zrotation Yrotation Xrotation
									End Site
									{
										OFFSET 0.54008 -0.00000 0.54008
									}
								}
							}
						}
					}
				}
				JOINT RightShoulder
				{
					OFFSET 0 0 0
					CHANNELS 3 Zrotation Yrotation Xrotation
					JOINT RightArm
					{
						OFFSET -3.31725 1.61216 0.35156
						CHANNELS 3 Zrotation Yrotation Xrotation
						JOINT RightForeArm
						{
							OFFSET -4.48913 -0.00000 0.00000
							CHANNELS 3 Zrotation Yrotation Xrotation
							JOINT RightHand
							{
								OFFSET -3.70510 -0.00000 0.00000
								CHANNELS 3 Zrotation Yrotation Xrotation
								JOINT RightFingerBase
								{
									OFFSET 0 0 0
									CHANNELS 3 Zrotation Yrotation Xrotation
									JOINT RightHandIndex1
									{
										OFFSET -0.44914 -0.00000 0.00000
										CHANNELS 3 Zrotation Yrotation Xrotation
										End Site
										{
											OFFSET -0.36211 -0.00000 0.00000
										}
									}
								}
								JOINT RThumb
								{
									OFFSET 0 0 0
									CHANNELS 3 Zrotation Yrotation Xrotation
									End Site
									{
										OFFSET -0.36763 -0.00000 0.36763
									}
								}
							}
						}
					}
				}
			}
		}
	}
}
MOTION
Frames: 8
Frame Time: .0083333
-0.6285 18.659 5.8598 0 0 0 0 0 0 -21 0 0 0 0 0 0 0 0 0 0 0 0 0 0 21 0 0 0 0 0 0 0 0 0 0 0 0 0 0 0 0 0 0 0 0 0 0 -16 0 0 21 0 0 11 0 0 0 -8 0 0 0 0 0 0 0 0 0 0 0 0 0 0 0 0 0 0 0 0 8 0 0 0 0 0 0 0 0 0 0 0 0 0 0 0 0 0
-0.6285 18.6590 5.8598 0.4585 -3.0477 2.2153 0.0000 0.0000 0.0000 -15.0542 -7.0826 -0.5418 1.0708 6.5783 18.4719 1.4911 5.5605 -25.6583 8.4950 -16.4715 -54.3266 0.0000 0.0000 0.0000 0.0000 0.0000 0.0000 0.0000 0.0000 0.0000 -0.0000 -0.0000 0.0000 -0.0000 -0.0000 0.0000 -2.6504 0.7681 2.8436 -0.2056 0.8685 -3.9282 1.2043 0.5379 -5.7054 -2.3255 -2.5903 -12.5834 4.3324 -4.2788 24.8258 1.3876 -1.7071 10.1203 -0.0000 -0.0000 0.0000 -90.4262 14.5786 26.8137 21.3605 -32.2467 -6.2412 -0.0000 -0.0000 4.9506 7.0754 -26.8214 -3.2055 -7.1250 0.0000 -0.0000 -13.7037 3.6316 13.1979 -0.0000 -0.0000 0.0000 89.4992 -21.3762 22.9310 -26.6179 37.8124 -9.2639 0.0000 0.0000 7.0327 -9.6245 -43.2215 6.6241 7.1250 -0.0000 -0.0000 40.9910 -69.5922 -25.5727
-0.6279 18.6591 5.8618 0.4509 -3.0725 2.2421 0.0000 0.0000 0.0000 -15.0556 -7.1162 -0.5474 1.0712 6.5794 18.4751 1.4965 5.5810 -25.7100 8.4919 -16.4694 -54.3156 0.0000 0.0000 0.0000 0.0000 0.0000 0.0000 0.0000 0.0000 0.0000 -0.0000 -0.0000 0.0000 -0.0000 -0.0000 0.0000 -2.6120 0.7694 2.8363 -0.2155 0.8717 -3.9544 1.1720 0.5380 -5.7280 -2.3316 -2.5994 -12.5491 4.3405 -4.2940 24.8464 1.3900 -1.7142 10.1221 -0.0000 -0.0000 0.0000 -90.4359 14.6824 26.8911 21.4053 -32.2984 -6.2651 -0.0000 -0.0000 4.9439 6.9704 -26.3219 -3.1031 -7.1250 0.0000 -0.0000 -13.7557 4.1281 13.1209 -0.0000 -0.0000 0.0000 89.5334 -21.4058 22.9311 -26.6326 37.8266 -9.2729 0.0000 0.0000 7.0827 -9.4806 -43.3561 6.5402 7.1250 -0.0000 -0.0000 41.3986 -69.6407 -25.8991
-0.6272 18.6595 5.8645 0.4551 -3.0971 2.2634 0.0000 0.0000 0.0000 -15.0668 -7.1037 -0.5581 1.0705 6.5774 18.4691 1.4988 5.5766 -25.7244 8.4913 -16.4690 -54.3138 0.0000 0.0000 0.0000 0.0000 0.0000 0.0000 0.0000 0.0000 0.0000 -0.0000 -0.0000 0.0000 -0.0000 -0.0000 0.0000 -2.5841 0.7782 2.8158 -0.2346 0.8844 -3.9733 1.1357 0.5429 -5.7359 -2.4144 -2.6237 -12.5349 4.4806 -4.3500 24.9162 1.4471 -1.7312 10.1523 -0.0000 0.0000 0.0000 -90.4277 14.7736 26.9597 21.4561 -32.3569 -6.2923 -0.0000 -0.0000 5.0257 6.8500 -26.0347 -3.0182 -7.1250 0.0000 -0.0000 -13.8224 4.4194 13.1112 -0.0000 0.0000 0.0000 89.5888 -21.4495 22.9147 -26.6508 37.8442 -9.2841 0.0000 0.0000 7.0993 -9.5157 -43.3380 6.5625 7.1250 -0.0000 -0.0000 41.3277 -69.6393 -25.8484
-0.6269 18.6599 5.8678 0.4637 -3.0911 2.2877 0.0000 0.0000 0.0000 -15.0793 -7.1071 -0.5596 1.0683 6.5708 18.4500 1.4916 5.5959 -25.6821 8.4926 -16.4699 -54.3183 0.0000 0.0000 0.0000 0.0000 0.0000 0.0000 0.0000 0.0000 0.0000 -0.0000 -0.0000 0.0000 -0.0000 -0.0000 0.0000 -2.5825 0.7744 2.7562 -0.2404 0.8806 -3.9941 1.1296 0.5409 -5.7232 -2.5464 -2.6454 -12.4187 4.6539 -4.3980 24.9233 1.5260 -1.7478 10.1416 0.0000 -0.0000 0.0000 -90.4281 14.8693 27.0489 21.5040 -32.4119 -6.3179 -0.0000 -0.0000 4.9666 6.8010 -25.9681 -2.9893 -7.1250 0.0000 -0.0000 -13.8504 4.4889 13.1210 0.0000 -0.0000 0.0000 89.5905 -21.5143 22.9305 -26.6662 37.8590 -9.2935 0.0000 0.0000 7.1426 -9.4068 -43.1139 6.4600 7.1250 -0.0000 -0.0000 41.0010 -69.4442 -25.4511
-0.6270 18.6608 5.8709 0.4784 -3.0685 2.3402 0.0000 0.0000 0.0000 -15.0958 -7.1615 -0.5737 1.0653 6.5618 18.4236 1.4903 5.6121 -25.6823 8.4674 -16.4525 -54.2293 0.0000 0.0000 0.0000 0.0000 0.0000 0.0000 0.0000 0.0000 0.0000 -0.0000 -0.0000 0.0000 -0.0000 -0.0000 0.0000 -2.5960 0.7609 2.6684 -0.2426 0.8640 -4.0177 1.1372 0.5332 -5.6973 -2.5758 -2.6404 -12.2861 4.6756 -4.3896 24.8832 1.5408 -1.7469 10.1022 -0.0000 0.0000 0.0000 -90.4358 14.9348 27.1598 21.5487 -32.4632 -6.3419 -0.0000 -0.0000 4.7451 6.8419 -26.2437 -3.0370 -7.1250 0.0000 -0.0000 -13.8306 4.2169 13.1733 -0.0000 0.0000 0.0000 89.5762 -21.5427 22.9466 -26.6609 37.8538 -9.2902 0.0000 0.0000 7.1895 -9.2830 -43.0112 6.3620 7.1250 -0.0000 -0.0000 40.9281 -69.3305 -25.3018
-0.6268 18.6615 5.8732 0.5291 -3.0592 2.4004 0.0000 0.0000 0.0000 -15.1535 -7.2285 -0.6020 1.0627 6.5541 18.4008 1.4974 5.6242 -25.7418 8.4536 -16.4429 -54.1805 0.0000 0.0000 0.0000 0.0000 0.0000 0.0000 0.0000 0.0000 0.0000 -0.0000 -0.0000 0.0000 -0.0000 -0.0000 0.0000 -2.6397 0.7474 2.6044 -0.2594 0.8446 -4.0298 1.1464 0.5249 -5.6731 -2.5270 -2.6199 -12.2939 4.6088 -4.3549 24.8994 1.5133 -1.7336 10.1053 0.0000 -0.0000 0.0000 -90.4539 14.9311 27.2103 21.5702 -32.4879 -6.3535 -0.0000 -0.0000 4.6058 6.9878 -26.8644 -3.1702 -7.1250 0.0000 -0.0000 -13.7564 3.5988 13.2604 0.0000 -0.0000 0.0000 89.5935 -21.5179 22.9674 -26.6429 37.8365 -9.2792 0.0000 0.0000 7.0857 -9.5274 -43.1002 6.5419 7.1250 -0.0000 -0.0000 40.8536 -69.4738 -25.3747
-0.6262 18.6613 5.8747 0.5473 -3.0557 2.4290 0.0000 0.0000 0.0000 -15.1764 -7.2708 -0.6082 1.0611 6.5494 18.3870 1.5044 5.6144 -25.7876 8.4537 -16.4430 -54.1809 0.0000 0.0000 0.0000 0.0000 0.0000 0.0000 0.0000 0.0000 0.0000 -0.0000 -0.0000 0.0000 -0.0000 -0.0000 0.0000 -2.6509 0.7337 2.5878 -0.2620 0.8263 -4.0108 1.1518 0.5157 -5.6430 -2.4802 -2.6042 -12.3959 4.5357 -4.3240 24.9249 1.4826 -1.7213 10.1301 -0.0000 0.0000 0.0000 -90.5045 14.8492 27.1688 21.5438 -32.4576 -6.3393 -0.0000 -0.0000 4.6265 7.1285 -27.1534 -3.2666 -7.1250 0.0000 -0.0000 -13.6801 3.3033 13.2588 -0.0000 0.0000 0.0000 89.5947 -21.4432 22.9985 -26.6278 37.8220 -9.2700 0.0000 0.0000 7.0698 -9.6102 -43.1613 6.6068 7.1250 -0.0000 -0.0000 40.8883 -69.5445 -25.4600
